<svg height="269.265597" viewBox="0 0 1262.2801 914.67772" width="371.380529" xmlns="http://www.w3.org/2000/svg" xmlns:xlink="http://www.w3.org/1999/xlink"><clipPath id="a"><path d="m0 841.89h1190.55v-841.89h-1190.55z"/></clipPath><g clip-path="url(#a)" transform="matrix(1.3333333 0 0 -1.3333333 -143.72893011823 1033.50650578592)"><g fill="#242323"><path d="m0 0h-13.038c-.152 0-.297-.031-.435-.085-.136-.052-.319-.17-.548-.35l-.893-.618-.273.123 2.905 4.88h32.662l-3.065-5.003h-.228v.455c0 .179-.068.323-.206.432-.137.11-.319.166-.55.166h-11.55v-23.735c0-.194.019-.346.057-.455.037-.111.111-.213.218-.308l.596-.515v-.287h-6.59v.287l.595.515c.124.095.21.207.263.327.055.124.08.27.08.436z" transform="translate(223.5537 115.3896)"/><path d="m0 0h-6.933l20.518 30.261 20.379-30.261h-7.019v.287c.303 0 .54.054.718.166.176.108.261.251.261.43 0 .126-.016.237-.054.341-.04.102-.083.178-.128.235l-6.909 10.21h-9.972c-.471 0-.784-.009-.936-.027-.153-.025-.259-.068-.32-.134l-.664-.498-.23.166 2.908 4.51h6.47l-4.504 6.688-14.391-20.893c-.058-.083-.104-.177-.136-.276-.029-.104-.045-.215-.045-.322 0-.179.088-.322.263-.43.179-.112.416-.166.724-.166z" transform="translate(250.021 90.0898)"/><path d="m0 0v26.183c0 .138-.026.263-.083.38-.05.121-.139.224-.26.321l-.549.512v.29h6.54v-.29l-.547-.512c-.122-.111-.205-.218-.252-.321-.046-.103-.069-.228-.069-.38v-26.183c0-.166.027-.312.078-.436.056-.12.135-.232.243-.327l.547-.514v-.287h-6.54v.287l.549.514c.121.095.21.207.26.327.057.124.083.27.083.436" transform="translate(287.4644 91.6543)"/><path d="m0 0c-1.937 0-3.545-.161-4.825-.475-1.282-.318-2.364-.804-3.249-1.465-1.402-1.067-2.463-2.339-3.179-3.814-.716-1.478-1.076-3.116-1.076-4.913 0-1.906.35-3.582 1.054-5.03.701-1.449 1.754-2.666 3.156-3.655.991-.703 2.094-1.198 3.303-1.494 1.215-.296 2.879-.439 5-.439h14.089c.201 0 .373.027.525.081.156.054.321.15.506.287l.891.679h.389l-3.066-5.062h-13.334c-3.081 0-5.47.234-7.17.708-1.703.473-3.299 1.269-4.793 2.38-1.83 1.344-3.213 2.957-4.154 4.849-.934 1.884-1.404 3.987-1.404 6.308 0 1.797.271 3.485.809 5.062.544 1.577 1.347 3.027 2.415 4.345.749.919 1.602 1.742 2.563 2.472.96.722 2.012 1.35 3.157 1.871 1.006.453 2.087.774 3.247.966 1.16.193 2.876.289 5.146.289h16.149l-3.042-5.003h-.229l.046.372v.083c0 .179-.075.323-.23.432-.153.11-.342.166-.57.166z" transform="translate(315.8496 115.3896)"/><path d="m0 0v12.719h-15.371c-.182 0-.342-.02-.481-.072-.135-.046-.302-.145-.502-.295l-.891-.682-.275.126 2.904 4.94h14.616v9.447c0 .138-.024.263-.078.38-.055.121-.142.224-.265.321l-.595.512v.29h6.611v-.29l-.617-.512c-.108-.083-.181-.178-.219-.289-.037-.108-.056-.244-.056-.412v-26.183c0-.193.023-.348.068-.464.047-.119.115-.218.207-.299l.617-.514v-.287h-6.611v.287l.595.514c.123.095.21.207.265.327.054.124.078.27.078.436m-22.781 0v26.183c0 .152-.024.277-.069.38-.046.103-.13.21-.252.321l-.596.512v.29h6.59v-.29l-.595-.512c-.122-.097-.21-.2-.262-.321-.056-.117-.081-.242-.081-.38v-26.183c0-.166.025-.312.081-.436.052-.12.14-.232.262-.327l.595-.514v-.287h-6.59v.287l.596.514c.108.095.186.207.241.327.054.124.08.27.08.436" transform="translate(360.1978 91.6543)"/><path d="m0 0v19.905c-.016.153-.046.278-.092.381-.045.103-.131.21-.251.32l-.55.513v.289h6.542v-.289l-.547-.513c-.123-.096-.207-.2-.253-.307-.045-.112-.075-.241-.092-.394v-21.222c0-2.332-1.137-4.091-3.407-5.272-2.272-1.181-5.68-1.768-10.226-1.768-4.528 0-7.934.587-10.214 1.768-2.278 1.181-3.418 2.94-3.418 5.272v21.222c0 .153-.023.278-.069.381-.044.103-.131.21-.252.32l-.548.513v.289h6.542v-.289l-.549-.513c-.121-.096-.208-.2-.262-.32-.055-.117-.082-.242-.082-.381v-19.905c0-1.648.635-2.798 1.9-3.45 1.265-.65 3.567-.977 6.908-.977 3.401 0 5.736.323 7.012.968 1.271.646 1.908 1.799 1.908 3.459" transform="translate(396.1357 97.9316)"/><path d="m0 0v18.816c-.018.153-.047.278-.093.381-.044.103-.13.21-.25.321l-.596.512v.289h6.131v-.289l-.571-.512c-.108-.097-.187-.201-.243-.321-.052-.117-.077-.242-.077-.381v-28.714l-22.806 20.953v-18.421c0-.166.026-.312.081-.436.053-.12.13-.232.239-.327l.549-.515v-.287h-6.129v.287l.616.515c.108.095.187.207.243.327.052.124.077.27.077.436v28.696z" transform="translate(432.1128 99.0205)"/><path d="m0 0c-1.937 0-3.544-.161-4.825-.475-1.281-.318-2.364-.804-3.25-1.465-1.4-1.067-2.462-2.339-3.178-3.814-.717-1.478-1.076-3.116-1.076-4.913 0-1.906.35-3.582 1.054-5.03.701-1.449 1.754-2.666 3.155-3.655.99-.703 2.095-1.198 3.304-1.494 1.215-.296 2.879-.439 5-.439h7.685v10.188h-10.27c-.202 0-.373-.027-.525-.081-.156-.055-.321-.15-.506-.289l-.891-.679-.275.164 2.952 4.898h14.272v-16.651c0-.166.029-.312.092-.436.063-.12.143-.232.252-.327l.548-.515v-.287h-13.334c-3.081 0-5.471.234-7.17.708-1.702.473-3.299 1.269-4.794 2.38-1.829 1.344-3.211 2.957-4.152 4.849-.936 1.884-1.405 3.987-1.405 6.308 0 1.797.271 3.485.809 5.062.543 1.577 1.347 3.027 2.415 4.345.749.919 1.602 1.742 2.562 2.472.961.722 2.012 1.35 3.156 1.871 1.008.453 2.088.774 3.249.966 1.16.193 2.876.289 5.146.289h12.214l-3.042-5.003h-.275l.047.372v.083c0 .179-.076.323-.229.432-.153.11-.343.166-.571.166z" transform="translate(459.2397 115.3896)"/><path d="m0 0c-1.938 0-3.547-.161-4.827-.475-1.281-.318-2.362-.804-3.248-1.465-1.403-1.067-2.465-2.339-3.179-3.814-.716-1.478-1.076-3.116-1.076-4.913 0-1.906.35-3.582 1.054-5.03.701-1.449 1.753-2.666 3.156-3.655.99-.703 2.094-1.198 3.302-1.494 1.215-.296 2.88-.439 4.999-.439h14.091c.201 0 .373.027.526.081.154.054.32.15.503.287l.892.679h.39l-3.064-5.062h-13.338c-3.08 0-5.469.234-7.168.708-1.703.473-3.301 1.269-4.794 2.38-1.83 1.344-3.213 2.957-4.153 4.849-.934 1.884-1.404 3.987-1.404 6.308 0 1.797.27 3.485.81 5.062.543 1.577 1.345 3.027 2.415 4.345.747.919 1.6 1.742 2.561 2.472.961.722 2.014 1.35 3.156 1.871 1.008.453 2.09.774 3.249.966 1.161.193 2.875.289 5.147.289h16.148l-3.042-5.003h-.228l.045.372v.083c0 .179-.076.323-.23.432-.152.11-.342.166-.571.166z" transform="translate(509.2681 115.3896)"/><path d="m0 0v26.183c0 .138-.027.263-.083.38-.051.121-.14.224-.262.321l-.548.512v.29h6.542v-.29l-.548-.512c-.122-.111-.206-.218-.252-.321s-.069-.228-.069-.38v-26.183c0-.166.027-.312.078-.436.057-.12.136-.232.243-.327l.548-.514v-.287h-6.542v.287l.548.514c.122.095.211.207.262.327.056.124.083.27.083.436" transform="translate(531.04 91.6543)"/><path d="m0 0h-13.038c-.154 0-.296-.031-.434-.085-.137-.052-.32-.17-.549-.35l-.892-.618-.274.123 2.903 4.88h32.664l-3.062-5.003h-.23v.455c0 .179-.071.323-.209.432-.135.11-.32.166-.548.166h-11.547v-23.735c0-.194.019-.346.051-.455.04-.111.11-.213.222-.308l.596-.515v-.287h-6.59v.287l.593.515c.122.095.211.207.267.327.051.124.077.27.077.436z" transform="translate(555.6284 115.3896)"/><path d="m0 0v11.216l-14.135 16.47h7.548v-.29l-.484-.367c-.058-.067-.112-.148-.157-.237-.047-.09-.072-.168-.072-.238 0-.219.254-.617.76-1.197.069-.08.134-.147.181-.206l8.577-10.062 8.095 10.062c.031.045.092.121.182.231.479.536.714.926.714 1.172 0 .07-.027.148-.074.238-.045.089-.096.17-.154.237l-.439.367v.29h7.411l-13.174-16.096v-11.59c0-.166.022-.312.076-.436.059-.12.144-.232.269-.327l.549-.514v-.287h-6.567v.287l.574.514c.105.095.183.207.235.327.06.124.085.27.085.436" transform="translate(589.3013 91.6543)"/><path d="m0 0c-1.934 0-3.542-.161-4.821-.475-1.282-.318-2.366-.804-3.249-1.465-1.405-1.067-2.462-2.339-3.182-3.814-.71-1.478-1.07-3.116-1.07-4.913 0-1.906.344-3.582 1.051-5.03.699-1.449 1.751-2.666 3.156-3.655.986-.703 2.093-1.198 3.301-1.494 1.213-.296 2.88-.439 4.998-.439h7.687v10.188h-10.268c-.202 0-.374-.027-.527-.081-.152-.055-.322-.15-.506-.289l-.887-.679-.276.164 2.948 4.898h14.275v-16.651c0-.166.031-.312.088-.436.064-.12.145-.232.257-.327l.549-.515v-.287h-13.34c-3.077 0-5.469.234-7.169.708-1.699.473-3.301 1.269-4.79 2.38-1.829 1.344-3.216 2.957-4.155 4.849-.936 1.884-1.407 3.987-1.407 6.308 0 1.797.275 3.485.814 5.062.542 1.577 1.344 3.027 2.415 4.345.746.919 1.599 1.742 2.561 2.472.963.722 2.014 1.35 3.158 1.871 1.007.453 2.082.774 3.247.966 1.157.193 2.877.289 5.142.289h12.218l-3.043-5.003h-.271l.045.372v.083c0 .179-.079.323-.226.432-.16.11-.35.166-.578.166z" transform="translate(639.6406 115.3896)"/><path d="m0 0c-3.889 0-7.06-1.046-9.513-3.137-2.453-2.096-3.683-4.781-3.683-8.063 0-3.291 1.23-5.985 3.683-8.077 2.453-2.093 5.624-3.141 9.513-3.141 3.888 0 7.064 1.048 9.527 3.141 2.467 2.092 3.695 4.786 3.695 8.077 0 3.282-1.228 5.967-3.695 8.063-2.463 2.091-5.639 3.137-9.527 3.137m0 3.935c2.458 0 4.737-.317 6.85-.942 2.117-.622 3.927-1.518 5.437-2.683 1.965-1.511 3.45-3.236 4.443-5.176.999-1.945 1.503-4.056 1.503-6.334 0-2.265-.504-4.364-1.509-6.31-1.004-1.939-2.492-3.658-4.437-5.155-1.532-1.191-3.347-2.11-5.458-2.737-2.112-.632-4.385-.947-6.829-.947-2.424 0-4.693.315-6.802.947-2.113.627-3.929 1.546-5.46 2.737-1.967 1.483-3.448 3.193-4.447 5.127-.995 1.934-1.497 4.048-1.497 6.338 0 2.265.502 4.371 1.51 6.32 1.004 1.952 2.489 3.679 4.434 5.19 1.51 1.165 3.323 2.061 5.431 2.683 2.12.625 4.393.942 6.831.942" transform="translate(676.1025 115.9229)"/><path d="m0 0 10.769 18.732c.171.301.295.563.38.783.085.217.123.392.123.515 0 .094-.017.184-.058.269-.033.081-.092.157-.17.223l-.459.431v.289h6.726l-17.358-30.218-17.339 30.218h7.02v-.289l-.412-.367c-.092-.085-.162-.175-.213-.27-.052-.098-.081-.178-.081-.246 0-.125.047-.309.138-.555.09-.251.222-.516.386-.807z" transform="translate(712.3809 98.0977)"/><path d="m0 0 1.965 4.013h22.398l-2.998-5.066h-.275l.045.412v.085c0 .164-.073.296-.215.399-.144.103-.341.157-.583.157zm11.162 11.261c-1.935 0-3.542-.161-4.824-.475-1.279-.318-2.363-.805-3.246-1.466-1.407-1.066-2.465-2.339-3.184-3.813-.715-1.479-1.073-3.116-1.073-4.913 0-1.906.347-3.582 1.053-5.031.699-1.449 1.752-2.666 3.157-3.654.985-.703 2.09-1.198 3.3-1.494 1.217-.296 2.882-.439 4.999-.439h14.091c.201 0 .374.027.528.081.152.053.322.15.504.287l.889.678h.393l-3.065-5.061h-13.34c-3.076 0-5.47.233-7.168.708-1.7.473-3.3 1.268-4.792 2.38-1.828 1.344-3.215 2.957-4.156 4.848-.932 1.884-1.405 3.988-1.405 6.309 0 1.797.276 3.484.811 5.062.542 1.577 1.346 3.027 2.42 4.344.741.92 1.599 1.742 2.56 2.473.959.722 2.012 1.35 3.156 1.871 1.007.453 2.085.773 3.248.966 1.158.192 2.877.289 5.144.289h16.148l-3.039-5.003h-.228l.047.372v.083c0 .179-.081.322-.231.432-.157.11-.345.166-.574.166z" transform="translate(736.4893 104.1289)"/><path d="m0 0c2.197 0 4.073-.569 5.614-1.71 1.551-1.138 2.523-2.659 2.922-4.565l-8.187-5.436c3.946-.549 7.083-2.245 9.394-5.089 2.324-2.838 3.478-6.414 3.478-10.722v-1.728h-5.671v.287l.619.515c.104.094.185.207.237.327.058.124.085.269.085.435v.925c0 3.444-1.183 6.291-3.538 8.543-2.356 2.254-5.332 3.374-8.931 3.374-.457 0-.943-.012-1.464-.049-.516-.034-1.074-.085-1.665-.154l8.664 6.114c.64.466 1.085.868 1.326 1.205.249.336.365.708.365 1.121 0 .824-.383 1.469-1.16 1.945-.78.475-1.864.712-3.249.712h-11.393v-23.736c0-.166.027-.311.08-.435.052-.12.142-.233.263-.327l.546-.515v-.287h-6.542v.287l.552.515c.111.094.185.207.241.327.052.124.074.269.074.435v26.183c0 .152-.017.277-.064.381-.043.102-.13.21-.251.32l-.552.513v.289z" transform="translate(786.5537 119.3398)"/><path d="m0 0v18.816c-.016.153-.047.278-.094.381s-.132.21-.249.321l-.595.512v.289h6.129v-.289l-.575-.512c-.101-.097-.181-.201-.242-.321-.052-.117-.074-.242-.074-.381v-28.714l-22.804 20.953v-18.421c0-.166.025-.312.08-.436.052-.12.131-.232.238-.327l.551-.515v-.287h-6.13v.287l.615.515c.111.095.19.207.244.327.049.124.076.27.076.436v28.696z" transform="translate(827.7559 99.0205)"/><path d="m0 0 11.525 22.502 8.949-30.261h-5.949v.287l.57.515c.08.067.145.162.196.287.052.126.079.256.079.393 0 .069-.014.172-.047.306-.027.139-.074.296-.139.475l-4.96 17.21-10.457-20.441-10.905 20.237-4.556-16.988c-.045-.148-.079-.287-.106-.41-.018-.123-.029-.24-.029-.349 0-.151.024-.289.069-.412.047-.126.113-.227.204-.308l.527-.515v-.287h-5.9l9.076 30.261z" transform="translate(857.4004 97.8486)"/><path d="m0 0 1.969 4.013h22.394l-2.998-5.066h-.273l.047.412v.085c0 .164-.074.296-.217.399-.146.103-.341.157-.583.157zm11.164 11.261c-1.934 0-3.54-.161-4.821-.475-1.28-.318-2.366-.805-3.249-1.466-1.405-1.066-2.465-2.339-3.184-3.813-.713-1.479-1.073-3.116-1.073-4.913 0-1.906.348-3.582 1.056-5.031.696-1.449 1.749-2.666 3.154-3.654.988-.703 2.093-1.198 3.3-1.494 1.216-.296 2.883-.439 5.001-.439h14.089c.203 0 .374.027.53.081.15.053.321.15.502.287l.889.678h.393l-3.065-5.061h-13.338c-3.08 0-5.469.233-7.169.708-1.701.473-3.301 1.268-4.791 2.38-1.83 1.344-3.215 2.957-4.159 4.848-.931 1.884-1.402 3.988-1.402 6.309 0 1.797.274 3.484.809 5.062.542 1.577 1.348 3.027 2.42 4.344.744.92 1.599 1.742 2.56 2.473.959.722 2.01 1.35 3.155 1.871 1.008.453 2.086.773 3.25.966 1.158.192 2.875.289 5.143.289h16.149l-3.038-5.003h-.23l.045.372v.083c0 .179-.076.322-.227.432-.159.11-.346.166-.575.166z" transform="translate(886.4443 104.1289)"/><path d="m0 0v18.816c-.012.153-.045.278-.092.381-.045.103-.13.21-.246.321l-.597.512v.289h6.13v-.289l-.573-.512c-.105-.097-.185-.201-.244-.321-.05-.117-.076-.242-.076-.381v-28.714l-22.802 20.953v-18.421c0-.166.024-.312.076-.436.054-.12.132-.232.244-.327l.547-.515v-.287h-6.128v.287l.612.515c.112.095.193.207.245.327.05.124.076.27.076.436v28.696z" transform="translate(941.6816 99.0205)"/><path d="m0 0h-13.035c-.154 0-.293-.031-.433-.085-.136-.052-.32-.17-.549-.35l-.895-.618-.272.123 2.907 4.88h32.664l-3.068-5.003h-.228v.455c0 .179-.071.323-.208.432-.137.11-.321.166-.549.166h-11.548v-23.735c0-.194.018-.346.052-.455.038-.111.111-.213.222-.308l.595-.515v-.287h-6.587v.287l.596.515c.116.095.204.207.26.327.052.124.076.27.076.436z" transform="translate(965.0117 115.3896)"/></g><path d="m0 0h138.208s114.948 112.366 308.684 65.876c0 0-197.624 107.192-446.892-65.876" fill="#0893d2" transform="translate(289.8887 284.3105)"/><path d="m0 0s100.747-224.741 458.52-328.066h-241.522s-.014-98.155 205.356-200.199c0 0-246.693 42.63-315.147 233.786h116.248s-198.919 129.17-223.455 294.479" fill="#e73328" transform="translate(595.9868 775.1299)"/><path d="m0 0s31.003-30.983 43.904-38.734c0 0 55.549 52.938 64.587 111.06 0 0-49.079-80.071-108.491-72.326" fill="#f25524" transform="translate(486.2344 642.0786)"/><path d="m0 0s89.114-125.275 196.32-149.814h-112.368s-72.332 40.042-83.952 149.814" fill="#f7981d" transform="translate(442.3169 661.4487)"/><path d="m0 0s-68.457-173.075-316.443-269.944l210.533 30.999s-12.92-94.289-157.584-154.998c0 0 191.162 15.495 245.405 167.912l207.932 28.415h-289.296s91.702 86.533 99.453 197.616" fill="#8ccb39" transform="translate(424.2397 678.2539)"/><path d="m0 0v29.472h.011v.038c7.176.773 15.118 1.234 23.659 1.281v-30.791zm-37.631 0v18.654c3.444 3.218 11.407 6.327 22.674 8.593l.005-27.247zm79.806 31.296c-6.602 4.521-10.569 6.784-11.886 6.784-.902 0-3.034-1.539-6.333-4.526-8.075-.04-16.237-.47-23.945-1.29v14.724c0 .204 1.025.881 3.081 2.03.588.334.882.809.882 1.416 0 1.212-6.568 2.464-19.707 3.746.517-3.847.773-9.347.773-16.503l.003-7.614c-9.893-1.926-18.012-4.635-22.674-8.082v10.444c-5.088 1.331-10.296 2.581-15.641 3.73.586-4.322.88-9.721.88-16.206v-6.68c0-1.757-.188-9.047-.552-21.873v-.102c0-1.282 1.799-1.925 5.393-1.925 6.606 0 9.909 1.046 9.909 3.139v4.965h22.682v-17.216c0-1.152-.151-7.532-.442-19.141v-.1c0-1.287 1.393-1.925 4.184-1.925 7.779 0 11.667.974 11.667 2.934-.293 9.588-.438 15.024-.438 16.305v19.143h23.669v-5.978c0-1.349 1.616-2.023 4.844-2.023 7.049 0 10.573 1.078 10.573 3.24-.294 12.76-.443 19.781-.443 21.062v11.446c0 .268 1.104 1.382 3.304 3.342.657.404.992.876.992 1.417 0 .54-.258.981-.775 1.317" fill="#242323" transform="translate(466.2378 194.0225)"/><path d="m355.569 218.534h-41.066v-6.583h41.066zm13.982-3.141c0-1.488.037-3.075.11-4.761v-1.925c0-1.551-3.378-2.325-10.132-2.325-2.641 0-3.96.537-3.96 1.619v1.518h-41.066v-1.518c0-1.351-3.12-2.027-9.357-2.027-3.302 0-4.953.676-4.953 2.027.068 2.023.107 4.726.107 8.1 0 2.162-.181 4.893-.551 8.205 3.89-.613 8.918-1.759 15.085-3.447h39.743c3.741 2.974 5.978 4.459 6.716 4.459.733 0 2.788-.881 6.167-2.634 3.373-1.69 5.062-2.837 5.062-3.442 0-.612-.369-1.152-1.103-1.62-1.319-.813-1.979-1.253-1.979-1.315zm-53.616 10.431c-8.516 0-14.718-.237-18.608-.712l-2.2 4.154c4.622-.672 12.111-1.01 22.456-1.01h9.25v6.987h-18.937c-8.438 0-14.645-.239-18.604-.712l-2.202 4.152c4.622-.674 12.145-1.011 22.567-1.011h17.176v.708c0 2.565-.185 5.299-.548 8.203 12.547-1.082 18.822-2.228 18.822-3.441 0-.543-.366-.949-1.1-1.217-1.832-.61-2.754-1.084-2.754-1.416v-2.837h22.789c4.993 5.265 7.708 7.895 8.152 7.895.66 0 2.75-1.418 6.273-4.252 3.526-2.834 5.286-4.454 5.286-4.859 0-.811-.368-1.213-1.102-1.213h-41.398v-6.987h14.976c4.917 4.52 7.556 6.784 7.928 6.784.584 0 2.64-1.248 6.165-3.749 3.446-2.431 5.173-3.883 5.173-4.351 0-.744-.406-1.116-1.215-1.116zm49.871-68.053c5.138 5.94 7.999 8.911 8.589 8.911.807 0 3.007-1.548 6.604-4.659 3.596-3.04 5.394-4.861 5.394-5.466 0-.742-.255-1.116-.77-1.116h-79.597c-8.516 0-14.719-.237-18.608-.708l-2.312 4.154c4.699-.748 12.221-1.116 22.569-1.116h19.378v9.419h-12.331c-8.511 0-14.715-.268-18.604-.811l-2.312 4.152c4.696-.677 12.22-1.015 22.568-1.015h10.679v7.192c-6.678-1.082-13.871-1.759-21.576-2.025-.22 0-.552-.677-.992-2.026-.295-.677-.738-1.012-1.322-1.012-.882 0-2.423 4.893-4.622 14.684 5.206-.945 10.531-1.556 15.962-1.824 1.397 1.891 2.385 4.456 2.97 7.698-7.119 0-12.036-.206-14.748-.609l-1.985 3.948c4.402-.605 10.274-.91 17.614-.91h29.837c4.547 4.253 7.049 6.381 7.488 6.381.806 0 2.827-1.114 6.054-3.343 3.228-2.294 4.845-3.715 4.845-4.252 0-.744-.37-1.116-1.101-1.116h-30.936c-2.422-1.823-5.543-3.612-9.361-5.364-3.815-1.689-6.055-2.532-6.717-2.532.956-.206 5.911-.304 14.867-.304 7.265 0 15.743.268 25.431.811-2.938 2.225-5.361 3.741-7.266 4.555l.548 1.012h.332c14.239 0 21.359-3.107 21.359-9.318 0-3.847-1.798-5.766-5.395-5.766-1.614 0-3.047 1.007-4.297 3.033-1.761 3.105-2.97 4.658-3.629 4.658-5.579-1.688-11.783-3.274-18.607-4.757v-8.608h10.349c4.917 5.4 7.668 8.099 8.258 8.099.733 0 2.822-1.384 6.274-4.151 3.45-2.767 5.176-4.456 5.176-5.066 0-.742-.259-1.111-.772-1.111h-29.506v-9.316zm-67.377 43.546c.147-.743.219-1.622.219-2.634 0-7.089-3.046-10.633-9.137-10.633-4.405 0-6.605 1.857-6.605 5.569 0 2.498 1.319 4.318 3.964 5.467 4.77 2.16 7.338 5.673 7.706 10.533l1.98.101c.807-2.7 1.32-4.692 1.542-5.974h69.8c3.959 3.644 6.459 5.47 7.484 5.47 1.175 0 4.553-2.297 10.135-6.886.142-.069.254-.136.324-.206.368-.334.552-.809.552-1.416 0-.945-.475-1.485-1.433-1.622-2.346-.201-3.632-.403-3.848-.605-3.379-3.58-7.013-6.65-10.901-9.214l-1.872.911c.22 1.819.366 3.675.44 5.57v1.823c0 1.416-.039 2.667-.11 3.746z" fill="#242323"/><path d="m0 0 .551 1.618c1.246.071 2.787.103 4.621.103 13.873 0 20.809-3.374 20.809-10.123 0-4.797-2.607-7.192-7.816-7.192-3.52 0-5.875 1.484-7.044 4.454-2.568 5.872-6.283 9.587-11.121 11.14m58.238-66.229c0-6.345-5.103-10.498-15.304-12.458l-.104-.098c-.963-.139-1.655-.202-2.092-.202-1.248 0-1.909.538-1.987 1.618-.365 4.525-1.32 7.324-2.857 8.404-1.477 1.013-3.598 1.893-6.388 2.637l.332 2.023c2.861-.199 5.979-.302 9.356-.302h1.869c1.543 0 2.317.706 2.317 2.126v23.393h-18.384v-31.596c0-4.727.065-11.511.215-20.352 0-1.286-2.753-2.133-8.254-2.534h-.112c-1.763-.137-3.047-.204-3.856-.204-2.789 0-4.183.64-4.183 1.922.15 10.266.222 17.992.222 23.194v29.57h-17.174v-24.408c0-1.685.074-6.95.217-15.796 0-1.756-3.814-2.632-11.447-2.632-2.718 0-4.074.641-4.074 1.922.147 10.264.221 16.237.221 17.922v12.256c0 9.45-.185 15.562-.55 18.329 3.522-.876 6.383-1.687 8.587-2.431 2.715-.943 5.356-1.824 7.921-2.63h16.299v1.013c0 6.481-.294 11.543-.881 15.19 5.871-.88 10.822-1.656 14.862-2.33 4.109-.609 6.17-1.284 6.17-2.025 0-.607-.48-1.116-1.441-1.52-1.828-.945-2.742-1.59-2.742-1.924v-8.306h16.837c5.068 4.258 7.93 6.382 8.591 6.382.658 0 2.901-1.251 6.712-3.746 3.742-2.501 5.619-4.052 5.619-4.657 0-.477-.291-.914-.88-1.322-2.427-1.617-3.637-2.666-3.637-3.137zm-73.213 47.801c-8.804 0-14.787-.207-17.94-.607l-2.095 4.353c5.286-.674 13.175-1.012 23.67-1.012h57.469c4.183 4.792 6.94 7.966 8.254 9.519.221.267.589.404 1.104.404.663 0 3.045-1.721 7.159-5.165 4.037-3.444 6.049-5.433 6.049-5.975 0-.945-.437-1.418-1.32-1.418z" fill="#242323" transform="translate(570.6592 246.6836)"/><path d="m0 0h-11.337c-1.983-4.115-3.78-7.56-5.392-10.326 0-.137.881-3.175 2.638-9.117 1.766-5.938 3.746-10.496 5.949-13.667 4.913 9.114 7.64 20.149 8.142 33.11m-27.299-15.289h-11.892v-29.774c4.99.811 10.17 1.992 15.52 3.546l.668-1.823c-14.681-9.926-30.351-16.808-47.009-20.658-.152-.069-.327-.977-.549-2.737-.15-1.009-.588-1.52-1.326-1.52-1.17 0-3.851 6.081-8.032 18.234 3.085 0 5.693.131 7.817.403v27.95c0 7.897-.368 14.243-1.104 19.04 11.012-1.555 16.512-2.771 16.512-3.649 0-.538-.366-.944-1.095-1.213-1.394-.61-2.093-1.082-2.093-1.418v-39.395c3.15.406 5.574.741 7.261 1.015v60.763h-7.158c-2.052 0-4.214-.038-6.495-.104h-1.091c-3.673-.071-6.35-.237-8.046-.508l-2.195 4.252c4.994-.674 11.818-1.011 20.475-1.011h12.659c4.994 6.348 7.889 9.519 8.698 9.519.955 0 3.271-1.651 6.934-4.961 3.665-3.374 5.51-5.404 5.51-6.076 0-.744-.341-1.111-.995-1.111h-14.866v-26.233c2.72 6.753 4.372 10.13 4.961 10.13.945 0 3.522-3.412 7.703-10.232 3.889 12.493 5.839 25.658 5.839 39.495 5.723-1.079 10.454-2.026 14.2-2.836 3.665-.739 5.502-1.484 5.502-2.225 0-.609-.477-1.047-1.429-1.315-1.694-.612-2.539-.982-2.539-1.116-1.463-6.009-3.262-11.543-5.391-16.609h11.449c4.477 6.142 7.084 9.218 7.818 9.218.808 0 3.154-1.62 7.044-4.864 3.968-3.168 5.948-5.095 5.948-5.772 0-.675-.369-1.011-1.098-1.011h-5.948c-.661-7.36-2.425-15.089-5.281-23.189-2.861-8.171-6.024-14.382-9.471-18.634 0-.543 2.42-2.229 7.269-5.063 4.772-2.837 10.165-5.235 16.174-7.193l-.215-1.416c-2.862-.271-4.954-3.547-6.274-9.822-.517-2.165-1.288-3.242-2.314-3.242-1.692 0-5.287 2.061-10.788 6.177-5.503 4.187-9.58 8.169-12.222 11.951-9.464-8.37-21.469-14.346-35.994-17.929l-1.098 1.52c13.865 6.282 24.545 14.719 32.026 25.322-3.229 6.275-5.173 15.526-5.834 27.746 0-.273-1.32-1.958-3.954-5.063-2.647-3.173-4.811-5.436-6.502-6.787l-1.657 1.114c1.401 2.634 2.721 5.671 3.968 9.114" fill="#242323" transform="translate(742.1084 221.5674)"/><path d="m0 0 1.103 1.111c4.918-.81 9.17-2.565 12.77-5.264 3.597-2.699 5.391-5.704 5.391-9.012 0-4.73-2.67-7.089-8.033-7.089-3.893 0-5.834 2.228-5.834 6.682-.078 6.076-1.868 10.599-5.397 13.572m14.534 7.797c-6.903 0-11.704-.203-14.422-.61l-2.092 3.951c4.476-.607 10.346-.908 17.617-.908h8.256v3.949c0 5.6-.368 10.561-1.105 14.883 12.483-1.416 18.718-2.566 18.718-3.442 0-.611-.367-1.046-1.098-1.314-1.838-.881-2.752-1.556-2.752-2.031v-12.045h.659c2.794 7.152 4.661 10.733 5.615 10.733.661 0 2.312-1.858 4.956-5.57 2.639-3.648 3.957-5.808 3.957-6.482 0-.607-.253-.912-.765-.912h-14.422v-41.115c0-6.55-4.478-10.699-13.438-12.455h-.11c-.804-.204-1.504-.305-2.084-.305-1.176 0-1.878.506-2.096 1.521-.514 3.574-1.323 5.975-2.42 7.188-1.177 1.283-4.365 2.637-9.581 4.051l.444 1.924c3.817-.273 7.524-.406 11.117-.406h1.656c1.833 0 2.749.778 2.749 2.332v37.063zm-27.742 22.277c12.334-2.498 18.493-4.319 18.493-5.467 0-.542-.436-.911-1.317-1.117-2.277-.538-3.452-.91-3.525-1.109-.078 0-.331-.677-.77-2.027-1.906-5.604-3.928-10.195-6.056-13.771 2.718-.945 4.073-1.726 4.073-2.33 0-.542-.294-.948-.88-1.219-1.541-.675-2.313-1.313-2.313-1.923v-28.149c0-.878.185-6.348.55-16.409 0-1.752-3.778-2.631-11.34-2.631-2.202 0-3.298.675-3.298 2.025.284 8.846.435 15.021.435 18.533v16.913c-2.862-2.635-5.723-4.863-8.586-6.686l-1.102.914c3.448 5.059 6.715 12.049 9.8 20.962 3.08 8.91 5.025 16.741 5.836 23.491m-29.18-6.584c0 6.82-.327 12.188-.986 16.105 5.946-1.284 11.449-2.803 16.513-4.558h27.527c-.812.471-1.511 1.354-2.098 2.635-1.684 4.724-4.875 7.898-9.578 9.517l.554 1.52c2.348.271 4.953.403 7.814.403 10.943 0 16.406-2.8 16.406-8.404 0-2.565-1.136-4.456-3.412-5.671h19.263c4.703 6.144 7.602 9.218 8.7 9.218.733 0 3.009-1.591 6.825-4.764 3.893-3.17 5.834-5.095 5.834-5.768 0-.814-.439-1.217-1.318-1.217h-77.398v-18.838c0-18.429-1.908-31.663-5.724-39.693-3.896-8.102-9.025-14.415-15.413-18.94l-1.548.912c5.366 11.074 8.039 30.077 8.039 57.012z" fill="#242323" transform="translate(839.1445 199.1396)"/></g></svg>