<?xml version="1.0" standalone="no"?><!DOCTYPE svg PUBLIC "-//W3C//DTD SVG 1.1//EN" "http://www.w3.org/Graphics/SVG/1.1/DTD/svg11.dtd"><svg t="1770993423723" class="icon" viewBox="0 0 1024 1024" version="1.1" xmlns="http://www.w3.org/2000/svg" p-id="6967" xmlns:xlink="http://www.w3.org/1999/xlink" width="200" height="200"><path d="M243.882667 234.922667c26.538667 21.589333 36.48 19.925333 86.314666 16.64l469.845334-28.245334c9.984 0 1.706667-9.941333-1.621334-11.605333L720.384 155.306667c-14.933333-11.605333-34.858667-24.874667-73.045333-21.589334l-454.954667 33.194667c-16.64 1.664-19.925333 9.941333-13.312 16.64l64.810667 51.370667z m28.16 109.525333V838.826667c0 26.538667 13.312 36.48 43.178666 34.858666l516.394667-29.866666c29.866667-1.664 33.237333-19.925333 33.237333-41.514667V311.210667c0-21.504-8.277333-33.152-26.581333-31.488l-539.648 31.530666c-19.925333 1.664-26.538667 11.605333-26.538667 33.194667z m509.781333 26.496c3.328 14.933333 0 29.866667-14.933333 31.573333l-24.917334 4.949334v365.013333c-21.589333 11.605333-41.514667 18.218667-58.112 18.218667-26.581333 0-33.237333-8.277333-53.12-33.152l-162.773333-255.488v247.168l51.498667 11.648s0 29.866667-41.514667 29.866666l-114.56 6.613334c-3.328-6.656 0-23.210667 11.605333-26.538667l29.866667-8.277333v-326.826667l-41.472-3.370667c-3.328-14.933333 4.949333-36.48 28.245333-38.144l122.88-8.277333 169.386667 258.816V415.786667l-43.221333-4.949334c-3.328-18.304 9.941333-31.573333 26.581333-33.194666l114.56-6.698667zM154.197333 122.112l473.173334-34.816c58.154667-4.992 73.088-1.664 109.653333 24.874667l151.04 106.154666c24.917333 18.261333 33.237333 23.253333 33.237333 43.136v582.357334c0 36.48-13.312 58.026667-59.776 61.354666l-549.546666 33.194667c-34.944 1.706667-51.541333-3.285333-69.802667-26.538667l-111.232-144.341333c-19.925333-26.581333-28.245333-46.464-28.245333-69.717333V180.181333c0-29.866667 13.312-54.741333 51.456-58.026666z" fill="#2c2c2c" p-id="6968"></path></svg>