<?xml version="1.0" standalone="no"?><!DOCTYPE svg PUBLIC "-//W3C//DTD SVG 1.1//EN" "http://www.w3.org/Graphics/SVG/1.1/DTD/svg11.dtd"><svg t="1772121954719" class="icon" viewBox="0 0 1024 1024" version="1.1" xmlns="http://www.w3.org/2000/svg" p-id="1651" xmlns:xlink="http://www.w3.org/1999/xlink" width="200" height="200"><path d="M736.0556 671m-288 0a288 288 0 1 0 576 0 288 288 0 1 0-576 0Z" fill="#00CCCC" p-id="1652"></path><path d="M947.0556 278.2L492.9556 67.3c-8.7-4-18.2-3.9-26.3-0.4-2 0.5-4 1.2-6 2.1L18.0556 274.4c-15.7 7.3-22.5 26.2-15 42.3 1.5 3.2 3.4 6 5.7 8.4 2.2 2.5 4.8 4.7 7.9 6.2 2.1 1.2 4.4 2.1 6.7 2.8l88.9 36c14.3 5.8 31.2-2.8 37.9-19.2 6.6-16.4 0.4-34.4-13.9-40.1l-23.7-9.6 366.1-170L853.0556 305.1 485.5556 449.4l-254.9-98.5c-13.4-5.3-29.4 3.8-35.9 20.1-2.8 7.1-3.3 14.4-1.9 20.8-0.4 2.2-0.6 4.4-0.6 6.7v342.2c0 17.6 12 32.2 27.5 34.6 1.6 0.6 3.2 1.2 4.9 1.7l270.7 72.4c5.8 1.6 11.6 1.7 17 0.7 6 1.5 12.7 1.5 19.3-0.2l270.7-72.4c16.2-4.3 27.1-18.1 27.2-32.6 1.7-4.3 2.7-9 2.7-14V390.8c0-3-0.4-6-1-8.8L947.0556 336.6c2.7-1.1 5.1-2.7 7.2-4.7 3.5-2.9 6.5-6.7 8.6-11.1 7.4-16.1 0.3-35.2-15.8-42.6zM768.3556 720.4l-253.1 67.7c-0.3 0.1-0.5 0.2-0.8 0.2-0.8-0.3-1.6-0.5-2.4-0.7l-255.7-68.4V429.1l221.1 85.5c3.9 1.5 8 1.8 12.1 1.1 1.5-0.2 3-0.6 4.4-1.2l274.4-107.8v313.7z" fill="#333333" p-id="1653"></path><path d="M959.4556 867.5c0 15.5-14.3 28.2-32 28.2s-32-12.6-32-28.2V479.6c0-15.5 14.3-28.2 32-28.2s32 12.6 32 28.2v387.9z" fill="#333333" p-id="1654"></path></svg>