<?xml version="1.0" standalone="no"?><!DOCTYPE svg PUBLIC "-//W3C//DTD SVG 1.1//EN" "http://www.w3.org/Graphics/SVG/1.1/DTD/svg11.dtd"><svg t="1772122897978" class="icon" viewBox="0 0 1024 1024" version="1.1" xmlns="http://www.w3.org/2000/svg" p-id="1069" data-spm-anchor-id="a313x.manage_type_mylikes.0.i8.6e2a3a81zs4HD1" xmlns:xlink="http://www.w3.org/1999/xlink" width="200" height="200"><path d="M329.142857 621.714286m-256 0a256 256 0 1 0 512 0 256 256 0 1 0-512 0Z" fill="#f4ea2a" p-id="1070" data-spm-anchor-id="a313x.manage_type_mylikes.0.i5.6e2a3a81zs4HD1" class="selected"></path><path d="M298.203429 143.798857c-23.186286 0-41.910857 17.042286-41.910858 38.253714v306.322286c0 126.902857 112.493714 229.595429 251.172572 229.595429 138.752 0 251.245714-102.838857 251.245714-229.668572V182.125714c0-21.065143-18.724571-38.253714-41.910857-38.253714H298.203429z m245.174857 789.430857h179.492571a35.84 35.84 0 0 1 0 71.68H292.132571a35.84 35.84 0 0 1 0-71.68h179.492572v-143.506285h71.68v143.506285z m287.085714-466.505143c39.643429 0 71.753143-32.182857 71.753143-71.68V287.305143a35.84 35.84 0 0 0-35.84-35.84h-35.84V466.651429zM184.539429 251.392h-35.84a35.84 35.84 0 0 0-35.913143 35.84V394.971429c0 39.643429 32.182857 71.753143 71.68 71.753142V251.392z m4.608 287.085714l-4.608 0.146286A143.433143 143.433143 0 0 1 40.96 395.117714V251.392c0-39.570286 32.182857-71.68 71.753143-71.68h71.68v-32.182857c0-41.837714 36.205714-75.629714 80.822857-75.629714h484.425143c44.617143 0 80.749714 33.792 80.749714 75.629714v32.182857h71.753143c39.570286 0 71.68 32.109714 71.68 71.68V394.971429a143.433143 143.433143 0 0 1-143.36 143.506285c-1.609143 0-3.145143 0-4.681143-0.146285-25.892571 142.774857-158.573714 251.392-318.390857 251.392-159.744 0-292.498286-108.617143-318.317714-251.245715z" fill="#2c2c2c" p-id="1071" data-spm-anchor-id="a313x.manage_type_mylikes.0.i9.6e2a3a81zs4HD1" class=""></path></svg>